<svg width="188" height="19" viewBox="0 0 188 19" fill="none" xmlns="http://www.w3.org/2000/svg">
<path d="M0.924778 18V1.2H3.99678V8.184H11.5328V1.2H14.6048V18H11.5328V10.68H3.99678V18H0.924778ZM23.2174 18.288C22.0654 18.288 21.0254 18.024 20.0974 17.496C19.1854 16.968 18.4574 16.24 17.9134 15.312C17.3854 14.368 17.1214 13.28 17.1214 12.048C17.1214 10.816 17.3934 9.736 17.9374 8.808C18.4814 7.864 19.2094 7.128 20.1214 6.6C21.0494 6.072 22.0894 5.808 23.2414 5.808C24.3774 5.808 25.4014 6.072 26.3134 6.6C27.2414 7.128 27.9694 7.864 28.4974 8.808C29.0414 9.736 29.3134 10.816 29.3134 12.048C29.3134 13.28 29.0414 14.368 28.4974 15.312C27.9694 16.24 27.2414 16.968 26.3134 17.496C25.3854 18.024 24.3534 18.288 23.2174 18.288ZM23.2174 15.624C24.0174 15.624 24.7134 15.328 25.3054 14.736C25.8974 14.128 26.1934 13.232 26.1934 12.048C26.1934 10.864 25.8974 9.976 25.3054 9.384C24.7134 8.776 24.0254 8.472 23.2414 8.472C22.4254 8.472 21.7214 8.776 21.1294 9.384C20.5534 9.976 20.2654 10.864 20.2654 12.048C20.2654 13.232 20.5534 14.128 21.1294 14.736C21.7214 15.328 22.4174 15.624 23.2174 15.624ZM31.7674 18V0.719999H34.8394V18H31.7674ZM41.7897 18.288C40.7657 18.288 39.9257 18.128 39.2697 17.808C38.6137 17.472 38.1257 17.032 37.8057 16.488C37.4857 15.944 37.3257 15.344 37.3257 14.688C37.3257 13.584 37.7577 12.688 38.6217 12C39.4857 11.312 40.7817 10.968 42.5097 10.968H45.5337V10.68C45.5337 9.864 45.3017 9.264 44.8377 8.88C44.3737 8.496 43.7977 8.304 43.1097 8.304C42.4857 8.304 41.9417 8.456 41.4777 8.76C41.0137 9.048 40.7257 9.48 40.6137 10.056H37.6137C37.6937 9.192 37.9817 8.44 38.4777 7.8C38.9897 7.16 39.6457 6.672 40.4457 6.336C41.2457 5.984 42.1417 5.808 43.1337 5.808C44.8297 5.808 46.1657 6.232 47.1417 7.08C48.1177 7.928 48.6057 9.128 48.6057 10.68V18H45.9897L45.7017 16.08C45.3497 16.72 44.8537 17.248 44.2137 17.664C43.5897 18.08 42.7817 18.288 41.7897 18.288ZM42.4857 15.888C43.3657 15.888 44.0457 15.6 44.5257 15.024C45.0217 14.448 45.3337 13.736 45.4617 12.888H42.8457C42.0297 12.888 41.4457 13.04 41.0937 13.344C40.7417 13.632 40.5657 13.992 40.5657 14.424C40.5657 14.888 40.7417 15.248 41.0937 15.504C41.4457 15.76 41.9097 15.888 42.4857 15.888ZM55.7085 18.288C54.0765 18.288 52.7645 17.832 51.7725 16.92C50.7965 15.992 50.3085 14.68 50.3085 12.984H53.3805C53.3965 13.768 53.5805 14.392 53.9325 14.856C54.2845 15.32 54.8525 15.552 55.6365 15.552C56.3725 15.552 56.9085 15.336 57.2445 14.904C57.5805 14.456 57.7485 13.872 57.7485 13.152V1.2H60.8205V13.152C60.8205 14.8 60.3565 16.072 59.4285 16.968C58.5165 17.848 57.2765 18.288 55.7085 18.288ZM68.1893 18.288C66.7013 18.288 65.5493 17.824 64.7333 16.896C63.9333 15.968 63.5333 14.608 63.5333 12.816V6.096H66.5813V12.528C66.5813 13.552 66.7893 14.336 67.2053 14.88C67.6213 15.424 68.2773 15.696 69.1733 15.696C70.0213 15.696 70.7173 15.392 71.2613 14.784C71.8213 14.176 72.1013 13.328 72.1013 12.24V6.096H75.1733V18H72.4613L72.2213 15.984C71.8533 16.688 71.3173 17.248 70.6133 17.664C69.9253 18.08 69.1173 18.288 68.1893 18.288ZM78.0342 18V6.096H80.7462L80.9862 8.112C81.3542 7.408 81.8822 6.848 82.5702 6.432C83.2742 6.016 84.0982 5.808 85.0422 5.808C86.5142 5.808 87.6582 6.272 88.4742 7.2C89.2902 8.128 89.6982 9.488 89.6982 11.28V18H86.6262V11.568C86.6262 10.544 86.4182 9.76 86.0022 9.216C85.5862 8.672 84.9382 8.4 84.0582 8.4C83.1942 8.4 82.4822 8.704 81.9222 9.312C81.3782 9.92 81.1062 10.768 81.1062 11.856V18H78.0342ZM93.9991 4.248C93.4391 4.248 92.9751 4.08 92.6071 3.744C92.2551 3.408 92.0791 2.984 92.0791 2.472C92.0791 1.96 92.2551 1.544 92.6071 1.224C92.9751 0.887999 93.4391 0.719999 93.9991 0.719999C94.5591 0.719999 95.0151 0.887999 95.3671 1.224C95.7351 1.544 95.9191 1.96 95.9191 2.472C95.9191 2.984 95.7351 3.408 95.3671 3.744C95.0151 4.08 94.5591 4.248 93.9991 4.248ZM92.4631 18V6.096H95.5351V18H92.4631ZM104.161 18.288C103.009 18.288 101.969 18.024 101.041 17.496C100.129 16.968 99.4008 16.24 98.8568 15.312C98.3288 14.368 98.0648 13.28 98.0648 12.048C98.0648 10.816 98.3368 9.736 98.8808 8.808C99.4248 7.864 100.153 7.128 101.065 6.6C101.993 6.072 103.033 5.808 104.185 5.808C105.321 5.808 106.345 6.072 107.257 6.6C108.185 7.128 108.913 7.864 109.441 8.808C109.985 9.736 110.257 10.816 110.257 12.048C110.257 13.28 109.985 14.368 109.441 15.312C108.913 16.24 108.185 16.968 107.257 17.496C106.329 18.024 105.297 18.288 104.161 18.288ZM104.161 15.624C104.961 15.624 105.657 15.328 106.249 14.736C106.841 14.128 107.137 13.232 107.137 12.048C107.137 10.864 106.841 9.976 106.249 9.384C105.657 8.776 104.969 8.472 104.185 8.472C103.369 8.472 102.665 8.776 102.073 9.384C101.497 9.976 101.209 10.864 101.209 12.048C101.209 13.232 101.497 14.128 102.073 14.736C102.665 15.328 103.361 15.624 104.161 15.624ZM112.711 18V6.096H115.447L115.735 8.328C116.167 7.56 116.751 6.952 117.487 6.504C118.239 6.04 119.119 5.808 120.127 5.808V9.048H119.263C118.591 9.048 117.991 9.152 117.463 9.36C116.935 9.568 116.519 9.928 116.215 10.44C115.927 10.952 115.783 11.664 115.783 12.576V18H112.711ZM126.854 18.288C125.798 18.288 124.87 18.12 124.07 17.784C123.27 17.432 122.63 16.952 122.15 16.344C121.67 15.736 121.382 15.032 121.286 14.232H124.382C124.478 14.696 124.734 15.096 125.15 15.432C125.582 15.752 126.134 15.912 126.806 15.912C127.478 15.912 127.966 15.776 128.27 15.504C128.59 15.232 128.75 14.92 128.75 14.568C128.75 14.056 128.526 13.712 128.078 13.536C127.63 13.344 127.006 13.16 126.206 12.984C125.694 12.872 125.174 12.736 124.646 12.576C124.118 12.416 123.63 12.216 123.182 11.976C122.75 11.72 122.398 11.4 122.126 11.016C121.854 10.616 121.718 10.128 121.718 9.552C121.718 8.496 122.134 7.608 122.966 6.888C123.814 6.168 124.998 5.808 126.518 5.808C127.926 5.808 129.046 6.136 129.878 6.792C130.726 7.448 131.23 8.352 131.39 9.504H128.486C128.31 8.624 127.646 8.184 126.494 8.184C125.918 8.184 125.47 8.296 125.15 8.52C124.846 8.744 124.694 9.024 124.694 9.36C124.694 9.712 124.926 9.992 125.39 10.2C125.854 10.408 126.47 10.6 127.238 10.776C128.07 10.968 128.83 11.184 129.518 11.424C130.222 11.648 130.782 11.992 131.198 12.456C131.614 12.904 131.822 13.552 131.822 14.4C131.838 15.136 131.646 15.8 131.246 16.392C130.846 16.984 130.27 17.448 129.518 17.784C128.766 18.12 127.878 18.288 126.854 18.288ZM135.57 18.168C135.01 18.168 134.546 17.992 134.178 17.64C133.826 17.288 133.65 16.864 133.65 16.368C133.65 15.856 133.826 15.424 134.178 15.072C134.546 14.72 135.01 14.544 135.57 14.544C136.13 14.544 136.586 14.72 136.938 15.072C137.306 15.424 137.49 15.856 137.49 16.368C137.49 16.864 137.306 17.288 136.938 17.64C136.586 17.992 136.13 18.168 135.57 18.168ZM145.555 18.288C144.339 18.288 143.267 18.024 142.339 17.496C141.411 16.968 140.675 16.232 140.131 15.288C139.603 14.344 139.339 13.264 139.339 12.048C139.339 10.832 139.603 9.752 140.131 8.808C140.675 7.864 141.411 7.128 142.339 6.6C143.267 6.072 144.339 5.808 145.555 5.808C147.075 5.808 148.355 6.208 149.395 7.008C150.435 7.792 151.099 8.88 151.387 10.272H148.147C147.987 9.696 147.667 9.248 147.187 8.928C146.723 8.592 146.171 8.424 145.531 8.424C144.683 8.424 143.963 8.744 143.371 9.384C142.779 10.024 142.483 10.912 142.483 12.048C142.483 13.184 142.779 14.072 143.371 14.712C143.963 15.352 144.683 15.672 145.531 15.672C146.171 15.672 146.723 15.512 147.187 15.192C147.667 14.872 147.987 14.416 148.147 13.824H151.387C151.099 15.168 150.435 16.248 149.395 17.064C148.355 17.88 147.075 18.288 145.555 18.288ZM159.533 18.288C158.381 18.288 157.341 18.024 156.413 17.496C155.501 16.968 154.773 16.24 154.229 15.312C153.701 14.368 153.437 13.28 153.437 12.048C153.437 10.816 153.709 9.736 154.253 8.808C154.797 7.864 155.525 7.128 156.437 6.6C157.365 6.072 158.405 5.808 159.557 5.808C160.693 5.808 161.717 6.072 162.629 6.6C163.557 7.128 164.285 7.864 164.813 8.808C165.357 9.736 165.629 10.816 165.629 12.048C165.629 13.28 165.357 14.368 164.813 15.312C164.285 16.24 163.557 16.968 162.629 17.496C161.701 18.024 160.669 18.288 159.533 18.288ZM159.533 15.624C160.333 15.624 161.029 15.328 161.621 14.736C162.213 14.128 162.509 13.232 162.509 12.048C162.509 10.864 162.213 9.976 161.621 9.384C161.029 8.776 160.341 8.472 159.557 8.472C158.741 8.472 158.037 8.776 157.445 9.384C156.869 9.976 156.581 10.864 156.581 12.048C156.581 13.232 156.869 14.128 157.445 14.736C158.037 15.328 158.733 15.624 159.533 15.624ZM168.083 18V6.096H170.795L171.059 7.704C171.443 7.128 171.947 6.672 172.571 6.336C173.211 5.984 173.947 5.808 174.779 5.808C176.619 5.808 177.923 6.52 178.691 7.944C179.123 7.288 179.699 6.768 180.419 6.384C181.155 6 181.955 5.808 182.819 5.808C184.371 5.808 185.563 6.272 186.395 7.2C187.227 8.128 187.643 9.488 187.643 11.28V18H184.571V11.568C184.571 10.544 184.371 9.76 183.971 9.216C183.587 8.672 182.987 8.4 182.171 8.4C181.339 8.4 180.667 8.704 180.155 9.312C179.659 9.92 179.411 10.768 179.411 11.856V18H176.339V11.568C176.339 10.544 176.139 9.76 175.739 9.216C175.339 8.672 174.723 8.4 173.891 8.4C173.075 8.4 172.411 8.704 171.899 9.312C171.403 9.92 171.155 10.768 171.155 11.856V18H168.083Z" fill="#1E0E62"/>
</svg>
